<svg width="57" height="70" viewBox="0 0 57 70" fill="none" xmlns="http://www.w3.org/2000/svg">
<path d="M0.4 33.68V8.72H3.32V12.32C3.61333 11.3867 4.02667 10.6267 4.56 10.04C5.12 9.45333 5.76 9.02667 6.48 8.76C7.22667 8.46667 8.02667 8.32 8.88 8.32C9.89333 8.32 10.8533 8.52 11.76 8.92C12.6933 9.29333 13.5067 9.86667 14.2 10.64C14.92 11.4133 15.48 12.3867 15.88 13.56C16.3067 14.7333 16.52 16.12 16.52 17.72C16.52 19.32 16.2933 20.7333 15.84 21.96C15.4133 23.1867 14.8267 24.2133 14.08 25.04C13.36 25.84 12.5333 26.4533 11.6 26.88C10.6933 27.28 9.76 27.48 8.8 27.48C8.08 27.48 7.37333 27.36 6.68 27.12C6.01333 26.9067 5.4 26.5867 4.84 26.16C4.28 25.7067 3.78667 25.1867 3.36 24.6V33.68H0.4ZM8.32 24.92C8.96 24.92 9.58667 24.8133 10.2 24.6C10.8133 24.36 11.3733 23.9733 11.88 23.44C12.3867 22.9067 12.7867 22.1867 13.08 21.28C13.3733 20.3467 13.52 19.2 13.52 17.84C13.52 16.3733 13.3333 15.1333 12.96 14.12C12.5867 13.08 12.04 12.28 11.32 11.72C10.6267 11.16 9.77333 10.8533 8.76 10.8C8.01333 10.7467 7.30667 10.8533 6.64 11.12C6 11.3867 5.42667 11.8267 4.92 12.44C4.41333 13.0533 4.01333 13.8667 3.72 14.88C3.45333 15.8667 3.32 17.0667 3.32 18.48C3.34667 19.3333 3.44 20.1067 3.6 20.8C3.76 21.4933 3.98667 22.1067 4.28 22.64C4.57333 23.1467 4.92 23.5733 5.32 23.92C5.72 24.24 6.17333 24.4933 6.68 24.68C7.18667 24.84 7.73333 24.92 8.32 24.92ZM21.16 27V24.68H26.56V2.72H21.4V0.399999H29.48V24.68H34.84V27H21.16ZM46.44 27.44C44.36 27.44 42.76 26.9733 41.64 26.04C40.52 25.08 39.96 23.8667 39.96 22.4C39.96 21.4133 40.2 20.5333 40.68 19.76C41.16 18.96 41.8133 18.2933 42.64 17.76C43.4933 17.2 44.48 16.7733 45.6 16.48C46.72 16.1867 47.9067 16.04 49.16 16.04C49.6133 16.04 50.0667 16.0533 50.52 16.08C51 16.08 51.4933 16.1067 52 16.16C52.5333 16.1867 53.08 16.24 53.64 16.32L53.72 18.52C53.24 18.44 52.7467 18.3867 52.24 18.36C51.76 18.3067 51.28 18.2667 50.8 18.24C50.32 18.2133 49.8533 18.2 49.4 18.2C48.44 18.2 47.56 18.28 46.76 18.44C45.96 18.6 45.2667 18.84 44.68 19.16C44.0933 19.48 43.64 19.8933 43.32 20.4C43 20.9067 42.84 21.52 42.84 22.24C42.84 22.8 42.9333 23.28 43.12 23.68C43.3333 24.0533 43.6133 24.36 43.96 24.6C44.3067 24.8133 44.7067 24.9733 45.16 25.08C45.64 25.1867 46.16 25.24 46.72 25.24C47.76 25.24 48.68 25.08 49.48 24.76C50.3067 24.4133 51 23.92 51.56 23.28C52.1467 22.64 52.5867 21.8533 52.88 20.92C53.1733 19.9867 53.32 18.92 53.32 17.72C53.32 15.9067 53.1067 14.4933 52.68 13.48C52.2533 12.4667 51.6133 11.7467 50.76 11.32C49.9333 10.8933 48.8667 10.68 47.56 10.68C46.68 10.68 45.8133 10.8533 44.96 11.2C44.1067 11.52 43.3333 12.0267 42.64 12.72L41.24 10.88C42.0933 10.0267 43.08 9.38667 44.2 8.96C45.32 8.53333 46.5067 8.32 47.76 8.32C48.96 8.32 50.0533 8.46667 51.04 8.76C52.0267 9.05333 52.8667 9.54667 53.56 10.24C54.28 10.9067 54.8267 11.8133 55.2 12.96C55.6 14.1067 55.8 15.5467 55.8 17.28V27H52.68V24.2C52.3333 24.8667 51.9067 25.4133 51.4 25.84C50.92 26.2667 50.4 26.6 49.84 26.84C49.28 27.0533 48.7067 27.2 48.12 27.28C47.5333 27.3867 46.9733 27.44 46.44 27.44ZM0.88 69V50.72H3.68V53.96C4.16 53.2133 4.72 52.5733 5.36 52.04C6 51.48 6.70667 51.0533 7.48 50.76C8.25333 50.44 9.05333 50.28 9.88 50.28C10.8933 50.28 11.8 50.5333 12.6 51.04C13.4 51.5467 14.04 52.36 14.52 53.48C15 54.6 15.24 56.08 15.24 57.92V69H12.44V58C12.44 56.72 12.2933 55.7067 12 54.96C11.7067 54.1867 11.3067 53.64 10.8 53.32C10.2933 52.9733 9.72 52.8 9.08 52.8C8.46667 52.8 7.84 52.9333 7.2 53.2C6.58667 53.4667 6.01333 53.8533 5.48 54.36C4.94667 54.84 4.50667 55.4267 4.16 56.12C3.84 56.8133 3.68 57.6 3.68 58.48V69H0.88ZM28.88 69.4C27.5467 69.4 26.3333 69.2 25.24 68.8C24.1467 68.3733 23.2 67.76 22.4 66.96C21.6267 66.16 21.0267 65.1733 20.6 64C20.1733 62.8 19.96 61.44 19.96 59.92C19.96 58.3733 20.1733 57 20.6 55.8C21.0533 54.6 21.6533 53.6 22.4 52.8C23.1733 51.9733 24.0667 51.3467 25.08 50.92C26.12 50.4933 27.2133 50.28 28.36 50.28C29.4 50.28 30.3733 50.4533 31.28 50.8C32.1867 51.1467 32.9733 51.68 33.64 52.4C34.3067 53.0933 34.8267 53.9867 35.2 55.08C35.6 56.1733 35.8 57.4667 35.8 58.96C35.8 59.1733 35.7867 59.4 35.76 59.64C35.76 59.8533 35.7467 60.0667 35.72 60.28H22.72C22.7733 61.4533 22.9733 62.48 23.32 63.36C23.6667 64.2133 24.12 64.92 24.68 65.48C25.24 66.0133 25.88 66.4133 26.6 66.68C27.3467 66.9467 28.1333 67.08 28.96 67.08C29.6 67.08 30.2 67.0133 30.76 66.88C31.32 66.72 31.84 66.4933 32.32 66.2C32.8267 65.88 33.28 65.4933 33.68 65.04L35.28 66.6C34.7733 67.2133 34.1867 67.7333 33.52 68.16C32.88 68.5867 32.1733 68.8933 31.4 69.08C30.6267 69.2933 29.7867 69.4 28.88 69.4ZM22.84 58.04H32.88C32.88 57.1867 32.76 56.4267 32.52 55.76C32.3067 55.0667 31.9867 54.48 31.56 54C31.16 53.4933 30.6667 53.12 30.08 52.88C29.52 52.6133 28.88 52.48 28.16 52.48C27.52 52.48 26.9067 52.5867 26.32 52.8C25.76 53.0133 25.24 53.36 24.76 53.84C24.28 54.2933 23.8667 54.8667 23.52 55.56C23.2 56.2533 22.9733 57.08 22.84 58.04ZM42.76 50.72H45.76L45.64 56.04L45.28 55.44C45.44 54.6133 45.72 53.88 46.12 53.24C46.52 52.6 47 52.0667 47.56 51.64C48.12 51.1867 48.7333 50.8533 49.4 50.64C50.0667 50.4 50.76 50.28 51.48 50.28C52.44 50.28 53.32 50.4533 54.12 50.8C54.9467 51.12 55.68 51.6133 56.32 52.28L55.04 54.52L54.88 54.88L54.6 54.72C54.5467 54.5067 54.4667 54.3067 54.36 54.12C54.2533 53.9333 54.0267 53.7067 53.68 53.44C53.2533 53.1733 52.8533 53 52.48 52.92C52.1333 52.8133 51.7333 52.76 51.28 52.76C50.6133 52.76 49.9467 52.8933 49.28 53.16C48.6133 53.4 48 53.7867 47.44 54.32C46.9067 54.8533 46.48 55.5333 46.16 56.36C45.84 57.1867 45.68 58.1733 45.68 59.32V69.04H42.76V50.72Z" fill="black"/>
</svg>
